<?xml version="1.0" encoding="utf-8"?>
<!-- Generator: Adobe Illustrator 22.1.0, SVG Export Plug-In . SVG Version: 6.00 Build 0)  -->
<svg version="1.1" id="Layer_1" xmlns="http://www.w3.org/2000/svg" xmlns:xlink="http://www.w3.org/1999/xlink" x="0px" y="0px"
	 viewBox="0 0 213.3 204" style="enable-background:new 0 0 213.3 204;" xml:space="preserve">
<metadata><?xpacket begin="﻿" id="W5M0MpCehiHzreSzNTczkc9d"?>
<x:xmpmeta xmlns:x="adobe:ns:meta/" x:xmptk="Adobe XMP Core 5.6-c143 79.161356, 2017/09/07-01:11:22        ">
   <rdf:RDF xmlns:rdf="http://www.w3.org/1999/02/22-rdf-syntax-ns#">
      <rdf:Description rdf:about=""/>
   </rdf:RDF>
</x:xmpmeta>
                                                                                                    
                                                                                                    
                                                                                                    
                                                                                                    
                                                                                                    
                                                                                                    
                                                                                                    
                                                                                                    
                                                                                                    
                                                                                                    
                                                                                                    
                                                                                                    
                                                                                                    
                                                                                                    
                                                                                                    
                                                                                                    
                                                                                                    
                                                                                                    
                                                                                                    
                                                                                                    
                           
<?xpacket end="w"?></metadata>
<style type="text/css">
	.st0{fill:#919396;}
	.st1{fill:#010101;}
</style>
<g>
	<path class="st0" d="M94.4,115.9c-4.5,3.3-7.5,8.7-8.5,15.6l-0.7,5c-0.2,1.4-1.5,2.3-2.7,1.6c-5.1-3-9.8-6.8-13.9-11.3
		c-1-1-0.9-3-0.1-4.1c4.4-6.5,7.5-8.6,17.6-8.6c0,0,6.5,0,7.5,0C94.5,114.2,95.3,115.2,94.4,115.9z M61.8,117.5
		c-1.5-1.8-2.8-3.6-4-5.5c-0.4-0.6-0.3-1.7,1.8-1.7c1.4,0,7.6,0,12,0c2.4,0,2.1,0.8,1.1,1.2c-3,1.4-5.4,3.4-7.7,5.8
		C64.2,118.1,62.9,118.7,61.8,117.5z M89.2,51c1,5,3.2,9,6.3,11.7c1.2,1,0.4,2.4-0.4,2.4s-8.3,0-8.3,0c-7.4,0-10.8-1.2-13.9-4.7
		c-0.6-0.7-0.8-1.9,0.5-3c3.9-3.2,8.4-5.9,13.2-8C88,48.8,88.9,49.4,89.2,51z M68.6,64.1c1.3,1.5,2.7,2.7,4.2,3.7
		c0.7,0.5,1.1,1.2-0.5,1.2c-2.4,0-5.7,0-6.5,0c-1.4,0-1.5-1.3-1.1-1.9c0.6-0.9,1.2-1.7,1.8-2.6C67.3,63.5,68.1,63.5,68.6,64.1z
		 M40,74.8c1.1,0.8,3.2,1.1,4.4,1.6c0.7,0.3,0.1,4.5,0,5.3c-0.2,1.3-0.3,2.5-0.4,3.8c0,0.4-0.6,1.2-1.3,1.2c-1.3,0-3.2,0-3.8,0
		c-0.9,0-1.1-1-1.1-1.5c0.2-2.2,0.4-4.3,0.7-6.5C38.7,78.3,39.6,74.5,40,74.8z M43.9,93.7c0,0.9,0.1,1.9,0.2,2.8
		c0.1,0.8-0.1,3.1-0.5,3.2c-1.4,0.3-3,0.1-4.1,0c-0.4,0-1.3-0.7-1.3-1.1c-0.2-1.7-0.3-3.4-0.4-5.1c0-0.5,0.4-1.1,1-1.1
		c1.3,0,3.5,0,4.1,0C43.7,92.5,43.9,93.3,43.9,93.7z M18.4,64.6c0-3.7,3-6.7,6.6-6.7c0,0,10.9,0,11.6,0c0.7,0,1.5,1.2,1.3,1.8
		c-1,2.4-1.8,4.8-2.5,7.3C35,68.2,33.6,69,32.8,69c-1.6,0-2.8,1.3-2.8,2.9c0,1.6,1.3,2.4,2.9,2.4c0.4,0,0.6,0.6,0.5,1.4
		c-0.6,3.1-1,6.3-1.2,9.6c0,0.5-0.6,1.5-1.4,1.5c-3.1,0-10.2,0-10.8,0c-0.7,0-1.4-0.8-1.4-1.6S18.4,64.6,18.4,64.6z M25,121.3
		c-3.6,0-6.6-3-6.6-6.7c0,0,0-19.6,0-20.4c0-0.8,0.8-1.6,1.7-1.6c0.7,0,7.1,0,10.2,0c1.2,0,1.7,0.6,1.7,2c0.1,2.9,0.4,5.8,0.8,8.6
		c0.1,0.9-0.3,1.3-0.7,1.4c-1.3,0.3-2.3,1.4-2.3,2.8c0,1.6,1.3,2.9,2.8,2.9c0.8,0,1.6,0.5,1.9,1.6c0.4,2.1,0.8,4.3,1.4,6.5
		c0.2,1-0.1,3-1.4,3C33.4,121.3,25,121.3,25,121.3z M79.7,185.4c-0.2-0.5-2.3-4.6-4.9-9.8c-0.3-0.6,0.2-1.7,1.1-1.7
		c4.6,0,7.3-0.5,10.8,0.7c1.2,0.4,1.1-0.2,2,2.4l2.8,11.5c0.2,0.7,0.2,1.5-1,1.5c-0.9,0-3.5,0-3.5,0
		C83.3,189.9,81.9,189.7,79.7,185.4z M126.1,195.7c5.4,0,8.8-1.2,12.2-7.7c0.3-0.6,3.3-6.5,6.6-13.1c0.5-1.1,1.8-2.7,2.7-2.9
		c1.4-0.3,2.4-0.7,3.6-0.9c3.8-0.8,7.3-3.3,8.8-7c1-2.4,2.8-6.6,4.9-11.6c0.6-1.4,1.7-2.2,2.3-2.2l0.6,0.1c1.6,0,2.8-1,2.8-2.6
		c0-1.1-0.6-2-1.5-2.5c-0.5-0.3-0.9-1-0.6-1.7c1.6-4.2,3.3-8.7,4.7-13.1c0.4-1.1,1.6-3.4,4-3.4c2.4,0,10.7,0,10.7,0
		c6.8,0,12.3-5.6,12.3-12.5c0,0,0-19.1,0-20.2c0-1,0.9-1.9,1.6-1.9c0.7,0,0.7,0,0.7,0c1.6,0,2.8-1.3,2.8-2.9c0-1.6-1.3-2.9-2.8-2.9
		c0,0-0.5,0-1,0s-1.3-0.8-1.3-1.7s0-20.4,0-20.4c0-6.9-5.5-12.5-12.3-12.5c0,0-12.9,0-14.5,0c-1.6,0-2.6-1.3-3-1.9
		c-2.6-4.7-5.7-9.1-9.2-13.1c-0.3-0.3-0.5-1.2-0.6-1.9c-0.1-1-0.6-2-1.5-2.7l-12.8-11c-0.9-0.8-2-1.1-3.1-1
		c-1.5,0.1-1.8,0.4-3.1-0.4c-6.2-3.3-12.8-5.8-19.8-7.2c-0.9-0.2-1.7-0.7-2.4-1.4c-0.8-0.9-1.9-1.4-3.2-1.4H98.1
		c-1.3,0-2.4,0.6-3.2,1.4c-0.7,0.7-1.5,1.2-2.4,1.4c-7,1.4-13.6,3.9-19.8,7.2c-1.3,0.7-1.6,0.5-3.1,0.4c-1.1-0.1-2.2,0.2-3.1,1
		l-12.8,11c-0.8,0.7-1.3,1.7-1.5,2.7c-0.1,0.7-0.3,1.6-0.6,1.9c-3.5,4-6.6,8.4-9.2,13.1c-0.4,0.6-1.4,1.9-3,1.9s-14.5,0-14.5,0
		c-6.8,0-12.3,5.6-12.3,12.5c0,0,0,19.5,0,20.4s-0.7,1.7-1.3,1.7s-1,0-1,0c-1.6,0-2.8,1.3-2.8,2.9c0,1.6,1.3,2.9,2.8,2.9
		c0,0,0,0,0.7,0c0.7,0,1.6,0.9,1.6,1.9c0,1,0,20.2,0,20.2c0,6.9,5.5,12.5,12.3,12.5c0,0,8.2,0,10.7,0c2.4,0,3.6,2.2,4,3.4
		c1.5,4.5,3.1,8.9,4.7,13.1c0.3,0.7-0.1,1.4-0.6,1.7c-0.9,0.5-1.5,1.4-1.5,2.5c0,1.6,1.3,2.6,2.9,2.6l0.4,0.1c0.5,0,1.8,0.6,2.4,2
		c2.1,5.1,3.9,9.2,4.9,11.6c1.6,3.7,5.2,6.3,9,7.1c1.1,0.3,2.1,1.2,3.5,1.5c0.9,0.2,2.1,1.2,2.6,2.3c3.3,6.6,6.3,12.5,6.6,13.1
		c3.3,6.5,6.7,7.7,12.2,7.7H126.1z M99.5,189.9c-1.4,0-2.1-0.8-2.3-1.7c-0.2-0.7-1.9-7.7-2.6-11c-0.2-0.9,0.5-1.6,1.8-1.5
		c3.1,0.1,6.5,0.1,10.1,0.1c3.6,0,7-0.1,10.1-0.1c1.3,0,2,0.6,1.8,1.5c-0.8,3.2-2.5,10.3-2.6,11c-0.2,0.9-0.9,1.7-2.3,1.7H99.5z
		 M150.5,74.8c3.9-0.2,3.6,1,4.1,1.5c2,2,3.7,3.6,6.6,4.2c0.9,0.2,1.6,0.7,1.7,1.6c0.4,2.8,0.6,5.6,0.6,8.6c0,1.9-0.1,3.7-0.2,5.5
		c-0.1,0.9-0.9,2.1-1.7,2.5c-2.2,0.9-4.2,2.3-5.7,4.3c-0.4,0.5-1.6,1.5-3.1,1.5H60.4c-1.5,0-2.8-1.1-3.1-1.5c-1.5-2-3.6-3.5-5.7-4.3
		c-0.9-0.4-1.7-1.6-1.7-2.5c-0.2-1.8-0.2-3.6-0.2-5.5c0-2.9,0.2-5.8,0.6-8.6c0.1-0.9,0.8-1.4,1.7-1.6c2.9-0.6,4.3-2.1,6.4-4
		c0.5-0.5-0.4-1.8,4.3-1.6H150.5z M106.5,144.4c-4.4,0-8.7-0.8-13-2.3c-1.9-0.7-2.3-2.3-2.1-3.8l0.9-6.6c1.2-8.9,6.2-13.8,14.2-13.8
		s13,4.9,14.2,13.8l0.9,6.6c0.2,1.6-0.2,3.2-2.1,3.8C115.2,143.6,110.8,144.4,106.5,144.4z M119.3,114.2c0.9,0,7.4,0,7.4,0
		c10,0,13.1,2.1,17.5,8.6c0.8,1.1,0.9,3-0.1,4.1c-4,4.4-8.7,8.2-13.8,11.3c-1.2,0.7-2.5-0.2-2.7-1.6l-0.7-5c-1-6.9-4-12.3-8.5-15.6
		C117.6,115.2,118.4,114.2,119.3,114.2z M147.2,119c-2.2-3.1-4.3-5.5-7-7.2c-0.9-0.6-1.2-1.5,1-1.5c3.9,0,9.6,0,10.9,0
		c1.9,0,2,1.4,1.7,2.1c-1.1,2.3-2.3,4.6-3.6,6.8C149.1,120.8,147.9,120,147.2,119z M106.5,60.6c-8.6,0-11.2-7.2-11.9-11.9
		c-0.1-0.8,0.5-2.1,1.6-2.4c3.4-0.7,6.8-1.2,10.2-1.2s6.8,0.4,10.2,1.2c1.1,0.3,1.7,1.6,1.6,2.4C117.6,53.4,115.1,60.6,106.5,60.6z
		 M126.3,49.4c4.8,2.1,9.3,4.8,13.2,8c1.3,1.1,1.1,2.3,0.5,3c-3.1,3.5-6.4,4.7-13.9,4.7c0,0-7.5,0-8.3,0c-0.8,0-1.6-1.4-0.4-2.4
		c3.1-2.6,5.3-6.6,6.3-11.7C124,49.4,124.9,48.8,126.3,49.4z M146.4,64.5c0.6,0.8,1.2,1.7,1.8,2.6c0.4,0.6,0.2,1.9-1.1,1.9
		c-0.8,0-4.1,0-6.5,0c-1.6,0-1.3-0.8-0.5-1.2c1.6-1,2.9-2.2,4.2-3.7C144.8,63.5,145.7,63.5,146.4,64.5z M174.3,78.8
		c0.3,2.1,0.6,4.3,0.7,6.5c0,0.5-0.2,1.5-1.1,1.5c-0.6,0-2.5,0-3.8,0c-0.7,0-1.3-0.8-1.3-1.2c-0.1-1.3-0.2-2.5-0.4-3.8
		c-0.1-0.8-0.4-4.4,0.3-4.6c1.2-0.4,2.5-0.4,3.9-0.4C173.1,76.7,174.3,78.3,174.3,78.8z M170.1,92.5c0.6,0,2.8,0,4.1,0
		c0.7,0,1,0.6,1,1.1c-0.1,1.7-0.2,3.4-0.4,5.1c0,0.4-1,1.9-1.4,1.8c-1.5-0.4-2.8-0.3-4.3-0.6c-0.5-0.1-0.4-2.5-0.3-3.3
		c0.1-0.9,0.1-1.9,0.2-2.8C169,93.3,169.2,92.5,170.1,92.5z M194.5,85.1c0,0.8-0.7,1.6-1.4,1.6c-0.6,0-7.8,0-10.8,0
		c-0.8,0-1.4-1-1.4-1.5c-0.2-3.2-0.6-6.4-1.2-9.6c-0.1-0.8,0-1.3,0.4-1.3c1.6,0,3-0.9,3-2.5c0-1.6-1.3-2.9-2.8-2.9
		c-0.8,0-2.2-0.8-2.6-1.9c-0.7-2.5-1.6-5-2.5-7.3c-0.2-0.6,0.5-1.8,1.3-1.8s11.6,0,11.6,0c3.6,0,6.6,3,6.6,6.7
		C194.5,64.6,194.5,84.4,194.5,85.1z M178.2,121.3c-1.3,0-1.7-2-1.4-3c0.6-2.3,1.1-4.5,1.4-6.5c0.3-1,1.1-1.6,1.9-1.6
		c1.6,0,2.8-1.3,2.8-2.9c0-1.4-1-2.6-2.3-2.8c-0.4-0.1-0.8-0.5-0.7-1.4c0.4-2.8,0.7-5.7,0.8-8.6c0.1-1.4,0.5-2,1.7-2
		c3.1,0,9.5,0,10.2,0c0.9,0,1.7,0.8,1.7,1.6c0,0.8,0,20.4,0,20.4c0,3.7-3,6.7-6.6,6.7C187.9,121.3,179.6,121.3,178.2,121.3z
		 M126.1,189.9c0,0-2.7,0-3.5,0c-1.2,0-1.2-0.8-1-1.5l2.8-11.5c0.3-0.9,0.9-1.9,2.2-2c4.1-0.3,7.5-1.5,10.9-1.3
		c1.2,0.1,1.2,0.8,0.8,1.8c-2.4,5.3-4.7,9.4-4.9,9.8C131,189.7,129.6,189.9,126.1,189.9z"/>
	<g>
		<path class="st1" d="M181.5,104.5c-0.5-0.1-0.6-0.5-0.7-1.4c-0.2-1.2-0.4-2.5-0.3-3.8h-20.6c-1.6,0.9-2.6,1.6-3.8,3.1
			c-0.1,0.1-0.2,0.5-0.4,1c-4.7,21.4-24,37.6-47.4,38.4c-0.6,0-1.2,0-1.8,0s-1.2,0-1.8,0c-25.9-0.4-47.7-39.2-47.8-39.4
			c-1.2-1.5-2.2-2.2-3.8-3.1H32.5c0,1.2-0.2,2.5-0.3,3.8c-0.1,0.9-0.3,1.3-0.7,1.4c-1.3,0.3-2.3,1.4-2.3,2.8c0,1.6,1.3,2.9,2.9,2.9
			c0.8,0,1.7,0.5,1.9,1.6c0.4,2.1,1.1,4.2,1.4,6.5c0.2,1,0.5,2.9-1.4,3.1l1.1,5.8c2.5,0,3.6,2.1,4,3.2c1.5,4.4,3.2,8.9,4.8,13
			c0.3,0.7-0.1,1.4-0.6,1.7c-0.9,0.5-1.5,1.4-1.5,2.5c0,1.6,1.3,2.9,2.9,2.9h0.4c0.5,0,1.9,0.4,2.5,1.8c2.1,5,3.9,9.1,5,11.6
			c1.6,3.7,4.9,6.9,8.8,7.7c1.2,0.3,2.9,0.9,4.3,1.2c0,0,27.1,4.9,62.4,2.7c3.7-0.3,19.6-3.1,20.1-3.1c1.4-0.3,2.7-0.6,3.9-0.8
			c3.9-0.8,7.2-4.1,8.8-7.7c1-2.4,2.8-6.5,5-11.6c0.6-1.4,1.9-1.8,2.5-1.8h0.4c1.6,0,2.9-1.3,2.9-2.9c0-1.1-0.6-2-1.5-2.5
			c-0.5-0.3-0.9-1-0.6-1.7c1.6-4.2,3.3-8.6,4.8-13c0.4-1.1,1.5-3.2,4-3.2l1.1-5.8c-1.3,0-1.7-2.1-1.4-3.1c0.6-2.3,1.1-4.4,1.4-6.5
			c0.3-1,1.2-1.6,1.9-1.6c1.6,0,2.9-1.3,2.9-2.9C183.8,105.9,182.8,104.7,181.5,104.5z"/>
	</g>
	<path class="st1" d="M32,74.4c0.4,0,1.1,0.1,1.1,0.9c-0.1,0.8,0,1.6-0.1,2.4h23.9c0.7-0.5,1.4-1,2-1.7c0.2-0.2,0.3-0.3,0.5-0.5
		c9.7-17.6,25.6-30.4,47.1-30.4c18.3,0,30.5,8.3,41.7,22c0.5,0.8,5.4,8.4,5.9,8.9c0.6,0.6,1.2,1.2,1.9,1.7h23.9
		c-0.1-0.8,0-1.6,0.1-2.4c0.1-0.7,0.5-0.9,0.9-0.9c1.6,0,2.9-1.3,2.9-2.9c0-1.6-1.3-2.9-2.9-2.9c-0.8,0-2.2-0.7-2.6-1.9
		c-0.7-2.5-1.6-4.9-2.6-7.3c-0.2-0.6,0.5-1.5,1.3-1.5l-2.7-5.8c-1.6,0-2.8-1.5-3.1-2.1c-2.7-4.7-5.8-9-9.3-13
		c-0.3-0.3-0.5-1.2-0.6-1.9c-0.1-1-0.6-2-1.5-2.7l-12.9-11c-0.9-0.8-2.1-1.1-3.2-1c-1.5,0.1-1.8,0.4-3.1-0.4
		c-6.2-3.3-12.9-5.7-20-7.1c-1-0.2-1.8-0.7-2.4-1.4c-0.8-0.9-1.9-1.4-3.2-1.4H98c-1.3,0-2.4,0.5-3.2,1.4c-0.7,0.7-1.5,1.2-2.4,1.4
		c-7.1,1.4-13.8,3.8-20,7.1c-1.3,0.7-1.6,0.5-3.1,0.4c-1.1-0.1-2.3,0.2-3.2,1l-12.9,11c-0.8,0.7-1.3,1.7-1.5,2.7
		c-0.1,0.7-0.3,1.6-0.6,1.9c-3.5,4-6.6,8.3-9.3,13c-0.4,0.6-1.6,2.1-3.2,2.1l-2.7,5.8c1.2,0,1.6,0.9,1.4,1.5c-1,2.4-1.8,4.8-2.6,7.3
		c-0.3,1.1-1.8,1.9-2.6,1.9c-1.6,0-2.9,1.3-2.9,2.9C29.1,73.1,30.4,74.4,32,74.4z"/>
</g>
</svg>
