<?xml version="1.0" encoding="utf-8"?>
<!-- Generator: Adobe Illustrator 22.1.0, SVG Export Plug-In . SVG Version: 6.00 Build 0)  -->
<svg version="1.1" id="Layer_1" xmlns="http://www.w3.org/2000/svg" xmlns:xlink="http://www.w3.org/1999/xlink" x="0px" y="0px"
	 viewBox="0 0 792 612" style="enable-background:new 0 0 792 612;" xml:space="preserve">
<metadata><?xpacket begin="﻿" id="W5M0MpCehiHzreSzNTczkc9d"?>
<x:xmpmeta xmlns:x="adobe:ns:meta/" x:xmptk="Adobe XMP Core 5.6-c143 79.161356, 2017/09/07-01:11:22        ">
   <rdf:RDF xmlns:rdf="http://www.w3.org/1999/02/22-rdf-syntax-ns#">
      <rdf:Description rdf:about=""/>
   </rdf:RDF>
</x:xmpmeta>
                                                                                                    
                                                                                                    
                                                                                                    
                                                                                                    
                                                                                                    
                                                                                                    
                                                                                                    
                                                                                                    
                                                                                                    
                                                                                                    
                                                                                                    
                                                                                                    
                                                                                                    
                                                                                                    
                                                                                                    
                                                                                                    
                                                                                                    
                                                                                                    
                                                                                                    
                                                                                                    
                           
<?xpacket end="w"?></metadata>
<style type="text/css">
	.st0{fill:#919396;}
	.st1{fill:#010101;}
</style>
<g>
	<path class="st0" d="M379.4,303.9c-4.5,3.3-7.5,8.7-8.5,15.6l-0.7,5c-0.2,1.4-1.5,2.3-2.7,1.6c-5.1-3-9.8-6.8-13.9-11.3
		c-1-1-0.9-3-0.1-4.1c4.4-6.5,7.5-8.6,17.6-8.6c0,0,6.5,0,7.5,0C379.5,302.2,380.3,303.2,379.4,303.9z M346.8,305.5
		c-1.5-1.8-2.8-3.6-4-5.5c-0.4-0.6-0.3-1.7,1.8-1.7c1.4,0,7.6,0,12,0c2.4,0,2.1,0.8,1.1,1.2c-3,1.4-5.4,3.4-7.7,5.8
		C349.2,306.1,347.9,306.7,346.8,305.5z M374.2,239c1,5,3.2,9,6.3,11.7c1.2,1,0.4,2.4-0.4,2.4c-0.8,0-8.3,0-8.3,0
		c-7.4,0-10.8-1.2-13.9-4.7c-0.6-0.7-0.8-1.9,0.5-3c3.9-3.2,8.4-5.9,13.2-8C373,236.8,373.9,237.4,374.2,239z M353.6,252.1
		c1.3,1.5,2.7,2.7,4.2,3.7c0.7,0.5,1.1,1.2-0.5,1.2c-2.4,0-5.7,0-6.5,0c-1.4,0-1.5-1.3-1.1-1.9c0.6-0.9,1.2-1.7,1.8-2.6
		C352.3,251.5,353.1,251.5,353.6,252.1z M325,262.8c1.1,0.8,3.2,1.1,4.4,1.6c0.7,0.3,0.1,4.5,0,5.3c-0.2,1.3-0.3,2.5-0.4,3.8
		c0,0.4-0.6,1.2-1.3,1.2c-1.3,0-3.2,0-3.8,0c-0.9,0-1.1-1-1.1-1.5c0.2-2.2,0.4-4.3,0.7-6.5C323.7,266.3,324.6,262.5,325,262.8z
		 M328.9,281.7c0,0.9,0.1,1.9,0.2,2.8c0.1,0.8-0.1,3.1-0.5,3.2c-1.4,0.3-3,0.1-4.1,0c-0.4,0-1.3-0.7-1.3-1.1
		c-0.2-1.7-0.3-3.4-0.4-5.1c0-0.5,0.4-1.1,1-1.1c1.3,0,3.5,0,4.1,0C328.7,280.5,328.9,281.3,328.9,281.7z M303.4,252.6
		c0-3.7,3-6.7,6.6-6.7c0,0,10.9,0,11.6,0c0.7,0,1.5,1.2,1.3,1.8c-1,2.4-1.8,4.8-2.5,7.3c-0.3,1.1-1.8,1.9-2.6,1.9
		c-1.6,0-2.8,1.3-2.8,2.9c0,1.6,1.3,2.4,2.9,2.4c0.4,0,0.6,0.6,0.5,1.4c-0.6,3.1-1,6.3-1.2,9.6c0,0.5-0.6,1.5-1.4,1.5
		c-3.1,0-10.2,0-10.8,0c-0.7,0-1.4-0.8-1.4-1.6S303.4,252.6,303.4,252.6z M310,309.3c-3.6,0-6.6-3-6.6-6.7c0,0,0-19.6,0-20.4
		s0.8-1.6,1.7-1.6c0.7,0,7.1,0,10.2,0c1.2,0,1.7,0.6,1.7,2c0.1,2.9,0.4,5.8,0.8,8.6c0.1,0.9-0.3,1.3-0.7,1.4
		c-1.3,0.3-2.3,1.4-2.3,2.8c0,1.6,1.3,2.9,2.8,2.9c0.8,0,1.6,0.5,1.9,1.6c0.4,2.1,0.8,4.3,1.4,6.5c0.2,1-0.1,3-1.4,3
		S310,309.3,310,309.3z M364.7,373.4c-0.2-0.5-2.3-4.6-4.9-9.8c-0.3-0.6,0.2-1.7,1.1-1.7c4.6,0,7.3-0.5,10.8,0.7
		c1.2,0.4,1.1-0.2,2,2.4l2.8,11.5c0.2,0.7,0.2,1.5-1,1.5c-0.9,0-3.5,0-3.5,0C368.3,377.9,366.9,377.7,364.7,373.4z M411.1,383.7
		c5.4,0,8.8-1.2,12.2-7.7c0.3-0.6,3.3-6.5,6.6-13.1c0.5-1.1,1.8-2.7,2.7-2.9c1.4-0.3,2.4-0.7,3.6-0.9c3.8-0.8,7.3-3.3,8.8-7
		c1-2.4,2.8-6.6,4.9-11.6c0.6-1.4,1.7-2.2,2.3-2.2l0.6,0.1c1.6,0,2.8-1,2.8-2.6c0-1.1-0.6-2-1.5-2.5c-0.5-0.3-0.9-1-0.6-1.7
		c1.6-4.2,3.3-8.7,4.7-13.1c0.4-1.1,1.6-3.4,4-3.4s10.7,0,10.7,0c6.8,0,12.3-5.6,12.3-12.5c0,0,0-19.1,0-20.2c0-1,0.9-1.9,1.6-1.9
		s0.7,0,0.7,0c1.6,0,2.8-1.3,2.8-2.9c0-1.6-1.3-2.9-2.8-2.9c0,0-0.5,0-1,0s-1.3-0.8-1.3-1.7s0-20.4,0-20.4c0-6.9-5.5-12.5-12.3-12.5
		c0,0-12.9,0-14.5,0c-1.6,0-2.6-1.3-3-1.9c-2.6-4.7-5.7-9.1-9.2-13.1c-0.3-0.3-0.5-1.2-0.6-1.9c-0.1-1-0.6-2-1.5-2.7l-12.8-11
		c-0.9-0.8-2-1.1-3.1-1c-1.5,0.1-1.8,0.4-3.1-0.4c-6.2-3.3-12.8-5.8-19.8-7.2c-0.9-0.2-1.7-0.7-2.4-1.4c-0.8-0.9-1.9-1.4-3.2-1.4
		h-16.8c-1.3,0-2.4,0.6-3.2,1.4c-0.7,0.7-1.5,1.2-2.4,1.4c-7,1.4-13.6,3.9-19.8,7.2c-1.3,0.7-1.6,0.5-3.1,0.4
		c-1.1-0.1-2.2,0.2-3.1,1l-12.8,11c-0.8,0.7-1.3,1.7-1.5,2.7c-0.1,0.7-0.3,1.6-0.6,1.9c-3.5,4-6.6,8.4-9.2,13.1
		c-0.4,0.6-1.4,1.9-3,1.9c-1.6,0-14.5,0-14.5,0c-6.8,0-12.3,5.6-12.3,12.5c0,0,0,19.5,0,20.4s-0.7,1.7-1.3,1.7c-0.5,0-1,0-1,0
		c-1.6,0-2.8,1.3-2.8,2.9c0,1.6,1.3,2.9,2.8,2.9c0,0,0,0,0.7,0c0.7,0,1.6,0.9,1.6,1.9c0,1,0,20.2,0,20.2c0,6.9,5.5,12.5,12.3,12.5
		c0,0,8.2,0,10.7,0c2.4,0,3.6,2.2,4,3.4c1.5,4.5,3.1,8.9,4.7,13.1c0.3,0.7-0.1,1.4-0.6,1.7c-0.9,0.5-1.5,1.4-1.5,2.5
		c0,1.6,1.3,2.6,2.9,2.6l0.4,0.1c0.5,0,1.8,0.6,2.4,2c2.1,5.1,3.9,9.2,4.9,11.6c1.6,3.7,5.2,6.3,9,7.1c1.1,0.3,2.1,1.2,3.5,1.5
		c0.9,0.2,2.1,1.2,2.6,2.3c3.3,6.6,6.3,12.5,6.6,13.1c3.3,6.5,6.7,7.7,12.2,7.7H411.1z M384.5,377.9c-1.4,0-2.1-0.8-2.3-1.7
		c-0.2-0.7-1.9-7.7-2.6-11c-0.2-0.9,0.5-1.6,1.8-1.5c3.1,0.1,6.5,0.1,10.1,0.1c3.6,0,7-0.1,10.1-0.1c1.3,0,2,0.6,1.8,1.5
		c-0.8,3.2-2.5,10.3-2.6,11c-0.2,0.9-0.9,1.7-2.3,1.7H384.5z M435.5,262.8c3.9-0.2,3.6,1,4.1,1.5c2,2,3.7,3.6,6.6,4.2
		c0.9,0.2,1.6,0.7,1.7,1.6c0.4,2.8,0.6,5.6,0.6,8.6c0,1.9-0.1,3.7-0.2,5.5c-0.1,0.9-0.9,2.1-1.7,2.5c-2.2,0.9-4.2,2.3-5.7,4.3
		c-0.4,0.5-1.6,1.5-3.1,1.5h-92.2c-1.5,0-2.8-1.1-3.1-1.5c-1.5-2-3.6-3.5-5.7-4.3c-0.9-0.4-1.7-1.6-1.7-2.5
		c-0.2-1.8-0.2-3.6-0.2-5.5c0-2.9,0.2-5.8,0.6-8.6c0.1-0.9,0.8-1.4,1.7-1.6c2.9-0.6,4.3-2.1,6.4-4c0.5-0.5-0.4-1.8,4.3-1.6H435.5z
		 M391.5,332.4c-4.4,0-8.7-0.8-13-2.3c-1.9-0.7-2.3-2.3-2.1-3.8l0.9-6.6c1.2-8.9,6.2-13.8,14.2-13.8c8,0,13,4.9,14.2,13.8l0.9,6.6
		c0.2,1.6-0.2,3.2-2.1,3.8C400.2,331.6,395.8,332.4,391.5,332.4z M404.3,302.2c0.9,0,7.4,0,7.4,0c10,0,13.1,2.1,17.5,8.6
		c0.8,1.1,0.9,3-0.1,4.1c-4,4.4-8.7,8.2-13.8,11.3c-1.2,0.7-2.5-0.2-2.7-1.6l-0.7-5c-1-6.9-4-12.3-8.5-15.6
		C402.6,303.2,403.4,302.2,404.3,302.2z M432.2,307c-2.2-3.1-4.3-5.5-7-7.2c-0.9-0.6-1.2-1.5,1-1.5c3.9,0,9.6,0,10.9,0
		c1.9,0,2,1.4,1.7,2.1c-1.1,2.3-2.3,4.6-3.6,6.8C434.1,308.8,432.9,308,432.2,307z M391.5,248.6c-8.6,0-11.2-7.2-11.9-11.9
		c-0.1-0.8,0.5-2.1,1.6-2.4c3.4-0.7,6.8-1.2,10.2-1.2s6.8,0.4,10.2,1.2c1.1,0.3,1.7,1.6,1.6,2.4
		C402.6,241.4,400.1,248.6,391.5,248.6z M411.3,237.4c4.8,2.1,9.3,4.8,13.2,8c1.3,1.1,1.1,2.3,0.5,3c-3.1,3.5-6.4,4.7-13.9,4.7
		c0,0-7.5,0-8.3,0s-1.6-1.4-0.4-2.4c3.1-2.6,5.3-6.6,6.3-11.7C409,237.4,409.9,236.8,411.3,237.4z M431.4,252.5
		c0.6,0.8,1.2,1.7,1.8,2.6c0.4,0.6,0.2,1.9-1.1,1.9c-0.8,0-4.1,0-6.5,0c-1.6,0-1.3-0.8-0.5-1.2c1.6-1,2.9-2.2,4.2-3.7
		C429.8,251.5,430.7,251.5,431.4,252.5z M459.3,266.8c0.3,2.1,0.6,4.3,0.7,6.5c0,0.5-0.2,1.5-1.1,1.5c-0.6,0-2.5,0-3.8,0
		c-0.7,0-1.3-0.8-1.3-1.2c-0.1-1.3-0.2-2.5-0.4-3.8c-0.1-0.8-0.4-4.4,0.3-4.6c1.2-0.4,2.5-0.4,3.9-0.4
		C458.1,264.7,459.3,266.3,459.3,266.8z M455.1,280.5c0.6,0,2.8,0,4.1,0c0.7,0,1,0.6,1,1.1c-0.1,1.7-0.2,3.4-0.4,5.1
		c0,0.4-1,1.9-1.4,1.8c-1.5-0.4-2.8-0.3-4.3-0.6c-0.5-0.1-0.4-2.5-0.3-3.3c0.1-0.9,0.1-1.9,0.2-2.8
		C454,281.3,454.2,280.5,455.1,280.5z M479.5,273.1c0,0.8-0.7,1.6-1.4,1.6c-0.6,0-7.8,0-10.8,0c-0.8,0-1.4-1-1.4-1.5
		c-0.2-3.2-0.6-6.4-1.2-9.6c-0.1-0.8,0-1.3,0.4-1.3c1.6,0,3-0.9,3-2.5c0-1.6-1.3-2.9-2.8-2.9c-0.8,0-2.2-0.8-2.6-1.9
		c-0.7-2.5-1.6-5-2.5-7.3c-0.2-0.6,0.5-1.8,1.3-1.8c0.7,0,11.6,0,11.6,0c3.6,0,6.6,3,6.6,6.7C479.5,252.6,479.5,272.4,479.5,273.1z
		 M463.2,309.3c-1.3,0-1.7-2-1.4-3c0.6-2.3,1.1-4.5,1.4-6.5c0.3-1,1.1-1.6,1.9-1.6c1.6,0,2.8-1.3,2.8-2.9c0-1.4-1-2.6-2.3-2.8
		c-0.4-0.1-0.8-0.5-0.7-1.4c0.4-2.8,0.7-5.7,0.8-8.6c0.1-1.4,0.5-2,1.7-2c3.1,0,9.5,0,10.2,0c0.9,0,1.7,0.8,1.7,1.6s0,20.4,0,20.4
		c0,3.7-3,6.7-6.6,6.7C472.9,309.3,464.6,309.3,463.2,309.3z M411.1,377.9c0,0-2.7,0-3.5,0c-1.2,0-1.2-0.8-1-1.5l2.8-11.5
		c0.3-0.9,0.9-1.9,2.2-2c4.1-0.3,7.5-1.5,10.9-1.3c1.2,0.1,1.2,0.8,0.8,1.8c-2.4,5.3-4.7,9.4-4.9,9.8
		C416,377.7,414.6,377.9,411.1,377.9z"/>
	<g>
		<path class="st1" d="M466.5,292.5c-0.5-0.1-0.6-0.5-0.7-1.4c-0.2-1.2-0.4-2.5-0.3-3.8h-20.6c-1.6,0.9-2.6,1.6-3.8,3.1
			c-0.1,0.1-0.2,0.5-0.4,1c-4.7,21.4-24,37.6-47.4,38.4c-0.6,0-1.2,0-1.8,0c-0.6,0-1.2,0-1.8,0c-25.9-0.4-47.7-39.2-47.8-39.4
			c-1.2-1.5-2.2-2.2-3.8-3.1h-20.6c0,1.2-0.2,2.5-0.3,3.8c-0.1,0.9-0.3,1.3-0.7,1.4c-1.3,0.3-2.3,1.4-2.3,2.8c0,1.6,1.3,2.9,2.9,2.9
			c0.8,0,1.7,0.5,1.9,1.6c0.4,2.1,1.1,4.2,1.4,6.5c0.2,1,0.5,2.9-1.4,3.1l1.1,5.8c2.5,0,3.6,2.1,4,3.2c1.5,4.4,3.2,8.9,4.8,13
			c0.3,0.7-0.1,1.4-0.6,1.7c-0.9,0.5-1.5,1.4-1.5,2.5c0,1.6,1.3,2.9,2.9,2.9h0.4c0.5,0,1.9,0.4,2.5,1.8c2.1,5,3.9,9.1,5,11.6
			c1.6,3.7,4.9,6.9,8.8,7.7c1.2,0.3,2.9,0.9,4.3,1.2c0,0,27.1,4.9,62.4,2.7c3.7-0.3,19.6-3.1,20.1-3.1c1.4-0.3,2.7-0.6,3.9-0.8
			c3.9-0.8,7.2-4.1,8.8-7.7c1-2.4,2.8-6.5,5-11.6c0.6-1.4,1.9-1.8,2.5-1.8h0.4c1.6,0,2.9-1.3,2.9-2.9c0-1.1-0.6-2-1.5-2.5
			c-0.5-0.3-0.9-1-0.6-1.7c1.6-4.2,3.3-8.6,4.8-13c0.4-1.1,1.5-3.2,4-3.2l1.1-5.8c-1.3,0-1.7-2.1-1.4-3.1c0.6-2.3,1.1-4.4,1.4-6.5
			c0.3-1,1.2-1.6,1.9-1.6c1.6,0,2.9-1.3,2.9-2.9C468.8,293.9,467.8,292.7,466.5,292.5z"/>
	</g>
	<path class="st1" d="M317,262.4c0.4,0,1.1,0.1,1.1,0.9c-0.1,0.8,0,1.6-0.1,2.4h23.9c0.7-0.5,1.4-1,2-1.7c0.2-0.2,0.3-0.3,0.5-0.5
		c9.7-17.6,25.6-30.4,47.1-30.4c18.3,0,30.5,8.3,41.7,22c0.5,0.8,5.4,8.4,5.9,8.9c0.6,0.6,1.2,1.2,1.9,1.7h23.9
		c-0.1-0.8,0-1.6,0.1-2.4c0.1-0.7,0.5-0.9,0.9-0.9c1.6,0,2.9-1.3,2.9-2.9c0-1.6-1.3-2.9-2.9-2.9c-0.8,0-2.2-0.7-2.6-1.9
		c-0.7-2.5-1.6-4.9-2.6-7.3c-0.2-0.6,0.5-1.5,1.3-1.5l-2.7-5.8c-1.6,0-2.8-1.5-3.1-2.1c-2.7-4.7-5.8-9-9.3-13
		c-0.3-0.3-0.5-1.2-0.6-1.9c-0.1-1-0.6-2-1.5-2.7l-12.9-11c-0.9-0.8-2.1-1.1-3.2-1c-1.5,0.1-1.8,0.4-3.1-0.4
		c-6.2-3.3-12.9-5.7-20-7.1c-1-0.2-1.8-0.7-2.4-1.4c-0.8-0.9-1.9-1.4-3.2-1.4h-17c-1.3,0-2.4,0.5-3.2,1.4c-0.7,0.7-1.5,1.2-2.4,1.4
		c-7.1,1.4-13.8,3.8-20,7.1c-1.3,0.7-1.6,0.5-3.1,0.4c-1.1-0.1-2.3,0.2-3.2,1l-12.9,11c-0.8,0.7-1.3,1.7-1.5,2.7
		c-0.1,0.7-0.3,1.6-0.6,1.9c-3.5,4-6.6,8.3-9.3,13c-0.4,0.6-1.6,2.1-3.2,2.1l-2.7,5.8c1.2,0,1.6,0.9,1.4,1.5c-1,2.4-1.8,4.8-2.6,7.3
		c-0.3,1.1-1.8,1.9-2.6,1.9c-1.6,0-2.9,1.3-2.9,2.9C314.1,261.1,315.4,262.4,317,262.4z"/>
</g>
</svg>
